<?xml version="1.0" encoding="utf-8"?>
<!-- Generator: Adobe Illustrator 24.0.0, SVG Export Plug-In . SVG Version: 6.00 Build 0)  -->
<svg version="1.1" id="Layer_1" xmlns="http://www.w3.org/2000/svg" xmlns:xlink="http://www.w3.org/1999/xlink" x="0px" y="0px"
	 viewBox="0 0 3000 2000" style="enable-background:new 0 0 3000 2000;" xml:space="preserve">
<style type="text/css">
	.st0{fill:#D4EDE9;}
	.st1{fill:#FA517D;}
	.st2{fill:#8093FE;}
	.st3{fill:#0B4169;}
	.st4{fill:#FFFFFF;}
	.st5{fill:#004273;}
	.st6{fill:#B3DAC9;}
	.st7{fill:#0B4665;}
	.st8{fill:#F48F8F;}
	.st9{fill:#1A8B91;}
	.st10{fill:#AFC1D1;}
	.st11{fill:#106578;}
	.st12{fill:#CE6161;}
	.st13{fill:#074066;}
</style>
<g>
	<g>
		<g>
			<path class="st0" d="M2626.3,1789.9H357c0,0-227.2-895.1,752.6-1190.2C2089.3,304.7,2945.1,1197.5,2626.3,1789.9z"/>
		</g>
	</g>
</g>
<g>
	<g>
		<g>
			<path class="st1" d="M1233.5,1494.3h273.7v-168.6h-273.7V1494.3z M1413.7,213.5c-194.5,23.9-379.4,142.1-395,466l192.9,24.8
				c0,0,35.8-109.8,97-130.6c61.2-20.7,131.7,13.9,150.1,66.5c18.5,52.5,23.1,102.2-64.7,161.1c-87.8,58.9-191.7,120.1-160.5,449.3
				h273.7v-71.1c3.3-56.1,16-130.4,57.7-164.2c71.6-58,230-153.2,258.3-319C1884,339.3,1638.9,185.8,1413.7,213.5z"/>
		</g>
	</g>
</g>
<g>
	<g>
		<rect x="2607.3" y="1015.3" class="st1" width="19.1" height="774.6"/>
	</g>
</g>
<g>
	<g>
		<polygon class="st2" points="2857.3,1139.7 2626.3,1139.7 2626.3,1015.3 2857.3,1015.3 2893.7,1077.5 		"/>
	</g>
</g>
<g>
	<g>
		<polygon class="st2" points="2893.7,1362.6 2626.3,1362.6 2626.3,1221.7 2893.7,1221.7 2952,1292.2 		"/>
	</g>
</g>
<g>
	<g>
		<polygon class="st2" points="2434.9,1272 2607.3,1272 2607.3,1156.8 2434.9,1156.8 2382.1,1214.4 		"/>
	</g>
</g>
<g>
	<g>
		<g>
			<path class="st2" d="M2195.3,745.6c-1.3,0-2.5-0.5-3.4-1.5c-1.7-1.9-1.6-4.8,0.3-6.6c0.3-0.3,14.9-13.9,28-37.3
				c-16-2.6-30.3-6.4-42.4-11.2c-34.2-13.5-53.4-34.8-54-60.1c-1.2-48.7,28.7-71.6,58.8-72.7c31.2-1.1,65.2,20.2,67.2,62
				c1.4,29.3-5.7,54.6-15.1,74.6c95.2,10.9,242.1-20.4,354.7-135.3c1.8-1.8,4.7-1.9,6.6-0.1c1.8,1.8,1.9,4.7,0.1,6.6
				c-115.9,118.3-268.1,149.6-365.7,137.5c-14,26.2-30.5,41.6-31.7,42.7C2197.5,745.2,2196.4,745.6,2195.3,745.6z M2184.7,565.6
				c-0.7,0-1.3,0-2,0c-23.7,0.8-50.9,17.9-49.8,63.2c0.5,21.3,17.6,39.6,48.1,51.7c12.4,4.9,27.1,8.7,43.5,11.2
				c9.5-19.4,17-44.3,15.7-72.9C2238.6,583.9,2210.8,565.6,2184.7,565.6z"/>
		</g>
	</g>
	<g>
		<g>
			<path class="st2" d="M200.8,893.8c-62.8,0-114.8-17.4-137.3-50.5c-17.4-25.6-25-71.4,38.2-144.2c1.7-1.9,4.6-2.1,6.6-0.5
				c1.9,1.7,2.1,4.6,0.5,6.6C61.8,759.2,48.8,805.1,71.2,838c35,51.3,153.1,61.4,263.4,22.5c26-9.2,54.2-21.1,81.5-35.3
				c-9.5-10.3-16.3-21.5-20.3-33.4c-8.6-25.9-4.1-55.7,13.6-88.5c18.1-33.6,72.2-65.9,111.4-66.5c18.9-0.4,33.2,6.7,41.1,20.2
				c7.3,12.5,7.5,28.8,0.8,47.1c-13,35.3-53.8,82-130.6,123.7c11.4,9.9,25.9,19,43.4,27.1c93.8,43.5,224.2-30.2,225.6-31
				c2.2-1.3,5.1-0.5,6.3,1.7c1.3,2.2,0.5,5.1-1.7,6.3c-1.4,0.8-34.2,19.5-79.5,32.9c-42.1,12.5-103.1,22.3-154.6-1.5
				c-19.7-9.1-35.8-19.4-48.2-30.9c-24.9,13-53.4,25.4-85.7,36.8C290.9,885.8,243.4,893.7,200.8,893.8z M522,646c-0.3,0-0.7,0-1,0
				c-35.7,0.6-86.9,31.1-103.4,61.7c-16.4,30.4-20.7,57.7-12.9,81.1c3.8,11.4,10.5,22,20,31.9C483.5,788.9,537,747.1,554,700.8
				c5.7-15.6,5.7-29.1-0.1-39.2C547.9,651.3,537.2,646,522,646z"/>
		</g>
	</g>
</g>
<g>
	<g>
		<path class="st2" d="M2304.1,1784.1c0,0,35.8,17.3,63.5-34.6c17.3-26.6,21.9-15,24.3-73.9c1.2-34.6,18.5-52,30-63.5
			c11.5-11.6,17.3-45,12.7-60.1c-4.6-15-13.6-29.7,18.5-61.8c32-32,46.8-65,49.4-102.2c2.6-37.2-14.7-51.1-56.3-16.5
			c-41.6,34.6-70.2,89.2-74.5,94.4c-4.3,5.2-34.6,33.8-33.8,69.3c0.9,35.5-6.1,52.8-12.1,60.6c-6.1,7.8-31.5,9.8-8.8,111
			C2312.8,1728.4,2281.6,1754.1,2304.1,1784.1z"/>
	</g>
</g>
<g>
	<g>
		<path class="st3" d="M2304.1,1784.1c0,0,21.7-48.8,14.7-72.2c-6.9-23.4-35.5-35.5-35.5-35.5s-1.7-64.1-13.9-88.3
			c-12.1-24.3-46.8-56.3-50.2-66.7c-3.5-10.4,0.9-42.4-29.4-67.6c-30.3-25.1-54.6-48.5-59.8-56.3c-5.2-7.8-39-18.2-26.9,72.8
			c5.2,13.9,34.6,61.5,44.2,81.4c9.5,19.9,10.4,42.4,6.9,65c-3.5,22.5,7.8,45,32,60.6c24.3,15.6,29.4,14.7,32.9,39
			C2222.7,1740.6,2257.3,1791.4,2304.1,1784.1z"/>
	</g>
</g>
<g>
	<g>
		<path class="st4" d="M2291.6,1783.9l-120.3-275.8l124.5,273.9c0.5,1.2,0,2.5-1.2,3.1C2293.5,1785.7,2292.1,1785.1,2291.6,1783.9
			C2291.6,1784,2291.6,1783.9,2291.6,1783.9z"/>
	</g>
</g>
<g>
	<g>
		<path class="st4" d="M2318,1774.2c9.3-28.4,18.5-57,27.4-85.5c4.4-14.3,8.8-28.6,12.6-43c3.8-14.5,7.8-29,12.1-43.3
			c8.6-28.7,18.2-57.2,29.4-85c5.8-13.8,11.7-27.6,18.8-40.8c7.1-13.2,14.7-26.2,24.4-37.6c-9.6,11.6-17,24.6-23.9,37.9
			c-6.9,13.3-12.6,27.2-18.2,41c-10.8,27.9-20.1,56.4-28.2,85.2c-4.1,14.4-7.9,28.9-11.5,43.4c-3.7,14.6-7.9,29-12.1,43.3
			c-8.5,28.7-17.3,57.4-26.3,86c-0.4,1.2-1.7,1.9-2.9,1.5C2318.3,1776.8,2317.6,1775.5,2318,1774.2
			C2318,1774.2,2318,1774.2,2318,1774.2z"/>
	</g>
</g>
<g>
	<g>
		<path class="st3" d="M2314.4,1704.5c-1.1,0-2.2-0.9-2.3-2c-0.1-0.7-9.6-75.7-13.6-167c-3.7-84.4-3.3-200.4,19.5-274.1
			c0.4-1.2,1.7-1.9,2.9-1.5c1.2,0.4,1.9,1.7,1.5,2.9c-43.3,139.9-6.1,436.1-5.7,439.1c0.2,1.3-0.7,2.4-2,2.6
			C2314.6,1704.5,2314.5,1704.5,2314.4,1704.5z"/>
	</g>
</g>
<g>
	<g>
		<path class="st3" d="M2320.2,1262.1c0,0,12.2-45,26.1-59.5c13.9-14.4,31.8-4,26.6,24.8C2367.6,1256.4,2320.2,1262.1,2320.2,1262.1
			z"/>
	</g>
</g>
<g>
	<g>
		<path class="st3" d="M2307.1,1323.4c0,0,28.5-44,39.9-44.6c11.4-0.6,20.7,10.4,8.5,29.4c-12.1,19.1-51.3,38.1-51.3,38.1
			L2307.1,1323.4z"/>
	</g>
</g>
<g>
	<g>
		<path class="st3" d="M2303.2,1356.9c0,0-24.8-16.8-30-32.1c-5.2-15.3-3.5-37.8,5.8-37.8s21.6,21.9,25.3,50L2303.2,1356.9z"/>
	</g>
</g>
<g>
	<g>
		<path class="st3" d="M2314.2,1284.4c0,0-18-17.3-18.2-36.7c-0.3-19.3,7.9-34.1,18.2-23.4c10.4,10.7,1.8,52.6,1.8,52.6
			L2314.2,1284.4z"/>
	</g>
</g>
<g>
	<g>
		<path class="st3" d="M2299.8,1413.2c0,0,19.9-36.1,27.4-45.6c7.5-9.5,26.6-12.7,21.4,17.9c-5.2,30.6-42.5,49.4-48.8,49.1V1413.2z"
			/>
	</g>
</g>
<g>
	<g>
		<path class="st3" d="M2299.8,1408.5c0,0-6.9-20.5-13.9-25.7s-26.6-2.6-19.9,24.3c6.6,26.9,28.6,30.6,33,27.4c4.5-3.2,0.7,0,0.7,0
			V1408.5z"/>
	</g>
</g>
<g>
	<g>
		<path class="st3" d="M2299.8,1506.8c0,0,13.3-48.9,24.8-63c11.5-14.1,25.4-15.9,24.8,9c-0.6,24.8-42.1,55.7-49.5,59.8
			L2299.8,1506.8z"/>
	</g>
</g>
<g>
	<g>
		<path class="st3" d="M2301.8,1555.8c0,0,20.2-33.2,30.6-37.9c10.4-4.6,21.9,27.4,0,44.2c-21.9,16.7-29.4,14.2-29.4,14.2
			L2301.8,1555.8z"/>
	</g>
</g>
<g>
	<g>
		<path class="st3" d="M2301.8,1577.7c0,0-27.4-2.3-41.3-21.9c-13.9-19.6-7.3-37,4.1-36.1
			C2276.1,1520.5,2293.2,1548.8,2301.8,1577.7z"/>
	</g>
</g>
<g>
	<g>
		<path class="st3" d="M2299,1501.8c0,0-14.1,2.1-34.4-19.6c-20.3-21.7-12.5-42.5,6-32.9c18.5,9.5,29.2,49.4,29.2,49.4L2299,1501.8z
			"/>
	</g>
</g>
<g>
	<g>
		<path class="st5" d="M2421.9,854.5c0,0,23.7,6.9,27.1-5.2c3.5-12.1-1.2-16.2-5.2-19.6c-4-3.5-26-4-27.7,5.2
			C2414.4,844.1,2421.9,854.5,2421.9,854.5z"/>
	</g>
</g>
<g>
	<g>
		<path class="st5" d="M2341.4,880.4c0,0,37.2-21.4,37.2-53.1c0-31.7-62.4-45.6-78.8-46.5c-16.5-0.9-46.8,27.7-39.8,82.3
			C2262.5,879.6,2307.6,904.7,2341.4,880.4z"/>
	</g>
</g>
<g>
	<g>
		<path class="st5" d="M2182.3,1302.6c0,0,20.2,6.9,26-15.6c5.8-22.5-16.2-13.9-20.2-12.1C2184,1276.6,2166.1,1292.2,2182.3,1302.6z
			"/>
	</g>
</g>
<g>
	<g>
		<path class="st5" d="M2128.6,1276c0,0,37.5,2.3,42.2-35.8c4.6-38.1-26-48.5-46.8-48.5c-20.8,0-54.9,14.3-41,60.9
			C2085.8,1265,2099.1,1278.3,2128.6,1276z"/>
	</g>
</g>
<g>
	<g>
		<path class="st2" d="M440.1,1779.5c0,0,66.6,8.7,79.2-71c12.6-79.7,1.4-68.4,13.5-95.3c12.1-26.9,25.1-51.1,25.1-100.5
			s11.3-70.1,22.5-82.7c11.3-12.6,26.9-43.8,22.5-84.5c-4.3-40.7,4.3-85.8,13-116.1c8.7-30.3,12.1-68.4,4.3-92.7
			c-7.8-24.3-43.3-11.3-67.6,26c-24.3,37.2-65,128.2-79.7,149.8c-14.7,21.7-22.5,75.4-17.3,117.4c5.2,42,6.2,81.8-10.3,98.3
			c-16.5,16.5-25.2,80.6-13,126.5C444.4,1700.7,416.7,1770,440.1,1779.5z"/>
	</g>
</g>
<g>
	<g>
		<path class="st5" d="M445.3,1779.5c0,0,1.7-58.9-14.4-78.5c-16.2-19.6-2.3-75.1-64.7-155.9c-62.4-80.8,11.5-165.1-43.9-234.4
			s-55.4-100.5-55.4-139.7c0-39.3-5.8-91.6-23.1-100.1c-17.3-8.5-35.8,49.2-32.3,87.4c3.5,38.1-60.1,121.3-35.8,196.3
			c24.3,75.1,27.7,121.3,27.7,144.4c0,23.1,1.2,50.8,17.3,64.7s70.4,64.7,38.1,90.1C226.5,1679.1,290,1777.2,445.3,1779.5z"/>
	</g>
</g>
<g>
	<g>
		<path class="st4" d="M426.6,1778.5c-21.9-35.9-41.9-72.8-61-110.2c-19-37.4-36.6-75.5-52.9-114.2c-16.2-38.7-30.5-78.2-43.1-118.2
			c-12.2-40.1-21.9-81-28.8-122.4c7.2,41.3,17.3,82,29.9,122c13,39.8,27.6,79.1,44.1,117.6c16.6,38.5,34.6,76.3,53.8,113.5
			c19.3,37.1,39.7,73.8,61.8,109.3l0,0c0.7,1.1,0.3,2.5-0.7,3.2S427.3,1779.6,426.6,1778.5L426.6,1778.5z"/>
	</g>
</g>
<g>
	<g>
		<path class="st4" d="M438,1776.3c14.2-35.8,25.8-72.7,35.3-110c9.8-37.3,14.5-75.7,21.9-113.7c7.1-38,14.7-75.9,22.5-113.7
			c7.9-37.8,15.6-75.7,24.7-113.3c-8.7,37.6-16,75.6-23.5,113.5c-7.4,37.9-14.6,75.9-21.3,113.9c-7,37.9-11.4,76.5-20.8,114.1
			c-9.1,37.6-20.4,74.7-34.4,110.9c-0.5,1.2-1.8,1.8-3,1.3C438.1,1779,437.5,1777.6,438,1776.3L438,1776.3L438,1776.3z"/>
	</g>
</g>
<g>
	<g>
		<path class="st1" d="M689.6,1643.5c0,0,11.3-26.9,4.3-37.2c-6.9-10.4-43.3-2.6-41.6,22.5C654.1,1653.9,675.7,1643.5,689.6,1643.5z
			"/>
	</g>
</g>
<g>
	<g>
		<path class="st1" d="M747.6,1582.9c0,0,35.5-14.7,24.3-65c-11.3-50.2-73.6-26-82.3-10.4C680.9,1523.1,668.8,1589,747.6,1582.9z"/>
	</g>
</g>
<g>
	<g>
		<path class="st5" d="M459.2,987.8c0,0,18.2,1.8,13-14.7c-5.2-16.5-32.9-9.5-32,0C441,982.7,454,988.1,459.2,987.8z"/>
	</g>
</g>
<g>
	<g>
		<path class="st5" d="M449.6,1047.6c0,0-4.3,33.8,32.9,48.5c37.2,14.7,58.9,0.9,59.8-20.8c0.9-21.7-0.5-38.1-16.7-46.8
			C509.4,1019.9,447,999.1,449.6,1047.6z"/>
	</g>
</g>
<g>
	<g>
		<g>
			<path class="st1" d="M786.6,546.4c0-28.1-23-51.1-51.1-51.1H558.2c-28.1,0-51.1,23-51.1,51.1V607c0,28.1,23,51.1,51.1,51.1h173.8
				l49.9,24.3l-4.1-41c-0.8-1-1.6-1.9-2.4-2.6c7-8.7,11.2-19.8,11.2-31.7V546.4z"/>
		</g>
	</g>
</g>
<g>
	<g>
		<g>
			<path class="st4" d="M712.1,557.4c0,6.2-5,11.3-11.3,11.3h-136c-6.2,0-11.3-5-11.3-11.3l0,0c0-6.2,5-11.3,11.3-11.3h136
				C707.1,546.1,712.1,551.2,712.1,557.4L712.1,557.4z"/>
		</g>
	</g>
	<g>
		<g>
			<path class="st4" d="M666.2,607.6c0,5.7-4.7,10.4-10.4,10.4H564c-5.7,0-10.4-4.7-10.4-10.4l0,0c0-5.7,4.7-10.4,10.4-10.4h91.8
				C661.5,597.2,666.2,601.9,666.2,607.6L666.2,607.6z"/>
		</g>
	</g>
</g>
<g>
	<g>
		<g>
			<path class="st5" d="M1871.8,63.4h-191.4c-23,0-41.6,18.6-41.6,41.6v47.3c0,23,18.6,41.6,41.6,41.6h78.9
				c5.1,9.5,13.9,24.1,22.9,30.9c5.4,6.3,3.6-6.8,3.6-13.4c0-5.7,3.2-13.7,12.8-17.5h73.2c23,0,41.6-18.6,41.6-41.6v-47.3
				C1913.4,82,1894.8,63.4,1871.8,63.4z"/>
		</g>
	</g>
</g>
<g>
	<g>
		<path class="st4" d="M1889.2,104.4c0,5.7-3.5,10.4-7.8,10.4h-207c-4.3,0-7.8-4.7-7.8-10.4l0,0c0-5.7,3.5-10.4,7.8-10.4h207
			C1885.7,94,1889.2,98.6,1889.2,104.4L1889.2,104.4z"/>
	</g>
</g>
<g>
	<g>
		<path class="st4" d="M1863.5,152.3c0,5.7-2.6,10.3-5.8,10.3h-185.4c-3.2,0-5.8-4.6-5.8-10.3l0,0c0-5.7,2.6-10.2,5.8-10.2h185.4
			C1860.9,142,1863.5,146.6,1863.5,152.3L1863.5,152.3z"/>
	</g>
</g>
<g>
	<g>
		<path class="st2" d="M1964.6,414l22.8-35c0,0-24.5-91.1,61.2-117c85.8-26,136.9,45,112.6,111.7c-24.3,66.7-126.5,80.6-168,32.9
			L1964.6,414z"/>
	</g>
</g>
<g>
	<g>
		<g>
			<rect x="2053.5" y="373.7" class="st4" width="24.3" height="13.6"/>
		</g>
	</g>
	<g>
		<g>
			<path class="st4" d="M2055.2,364.2v-26.6c0,0,12.1-1.2,13.3-8.1c1.2-6.9-6.6-8.7-11.8-2.3l-14.4-9.5c0,0,10.7-31.2,39.6-24
				s19.9,35.8,15.3,41.9c-4.6,6.1-20.4,11.6-20.4,11.6l-0.4,17H2055.2z"/>
		</g>
	</g>
</g>
<g>
	<g>
		<path class="st6" d="M990.1,1936.3c0,0,194.9-1.7,215.7-5.2c0,0,101.3-13,115.2-25.1c13.9-12.1-45.9-37.2-84.9-49.4
			c-39-12.1-233.9-26-345.6-17.7c-111.7,8.2-238.2,47.3-135.1,81.5c56.3,16.8,158.9,11.6,158.9,11.6L990.1,1936.3z"/>
	</g>
</g>
<g>
	<path class="st7" d="M1150.4,1870.2l19.5,14.9c0,0,21.7,2.7,23.8,13.9c2.2,11.3-12.1,20.8-60.2,21.2c-16,0.9-36.8-8.7-52-10.4
		c-15.2-1.7-32.5-6.5-30.3-60.2C1062,1806.8,1135.2,1867.3,1150.4,1870.2z"/>
</g>
<g>
	<path class="st7" d="M879.3,1847.9c0,0,8.2,49.9-21,59c-26.6,11.3-37,14.7-43.5,18.6c-6.5,3.9-52,2.7-64.1-5.1
		c-12.1-7.8-4.8-26.5,14.7-29.9l30.5-25.7C795.9,1864.7,874.4,1820.4,879.3,1847.9z"/>
</g>
<g>
	<path class="st8" d="M930.9,1466.6c0,0-39.6,312.5-40.4,327.3c-0.9,14.7-6.9,50.2-13.9,58.5c-6.9,8.2-25.1,25-55,32.8
		c-29.9,7.9-37.2-3-35.9-11.6c0,0,37.7-29.9,43.7-54.6c6.1-24.7,10-342.9,10-374.4C839.4,1413.1,926.3,1438.6,930.9,1466.6z"/>
</g>
<g>
	<path class="st8" d="M1064.9,1449.2l52,390.4l33.5,30.6c0,0-10.8,28.9-62.8,6.4c-27.3-13-36.4-26.9-36.4-26.9s-68.9-357.7-81-379.4
		C958.1,1448.7,1057.4,1437.7,1064.9,1449.2z"/>
</g>
<g>
	<path class="st1" d="M1042,1110.9c0,0-3.3,36.4,6.2,72.8c9.5,36.4,55.4,252.1,55.4,252.1s-19.9,63.2-161.1,46.8
		c-123-14.3-147-43.3-147-43.3s7.5-84.8,15.8-139.8c8.2-55.1,26.4-127,27.3-178.1C839.4,1070.1,1032.3,1044.2,1042,1110.9z"/>
</g>
<g>
	<path class="st5" d="M1031.3,857.9c0,0-9.5-88.3-10.4-135.6C1020,675.2,959,605,883.2,660.9c0,0-14.9-8.5-10.5,13.4
		c0,0-24.8,5.2-38.1,70.4C821.2,810,802.8,884.5,797,901.8C791.2,919.1,1013.8,925.5,1031.3,857.9z"/>
</g>
<g>
	<g>
		<path class="st8" d="M964,826.2v62.1l-57.3,6.1l0.8-80.5C907.5,813.8,964,795,964,826.2z"/>
	</g>
	<g>
		<path class="st8" d="M1000.5,746.6c0,0-59.8,3.9-102.2-51.5c0,0-18.2,6.9-13.9,41.1c0,0-7.2,2.7-16.5-2.7
			c-9.2-5.5-20.5,3.5-15.6,18.8c4.9,15.3,19.1,11.8,19.1,11.8s8.2,70.9,66.3,73.5S1000.1,770.9,1000.5,746.6z"/>
	</g>
</g>
<g>
	<path class="st8" d="M1144.3,1019.9c0,0,39.8-39.8,83.6-79.3c14.7-15.6,24.3-37.2,60.2-36.8c35.9,0.4,52.4,0,64.1-3
		c11.7-3,23-3.9,23,3c0,6.9-47.6,22.1-72.8,26.4c-3.9-0.4-7.8,0-7.8,0s-78.4,106.1-104.8,133.8c-26.4,27.7-49.4,26.4-68,0
		C1103.2,1037.7,1144.3,1019.9,1144.3,1019.9z"/>
</g>
<g>
	<path class="st8" d="M726.2,1019.5c0,0-97.7-97.5-102.9-103.6s-35.9-7.4-47.2-7.4c-11.3,0-41.6,1.3-48.1,0
		c-6.5-1.3-21.7,13,14.7,23s54.6,11.7,71,38.1c16.5,26.4,82.7,125.2,107.8,133c25.1,7.8,40.7,4.8,55-18.6
		C790.9,1060.6,726.2,1019.5,726.2,1019.5z"/>
</g>
<g>
	<path class="st9" d="M1156.7,993.1l-17.3-11c0,0-0.2-0.3-0.6-0.8c-4.6,13.1-22.2,63.6-29.3,89.7l12.5,11
		C1122.1,1082,1153.8,1025.4,1156.7,993.1z"/>
</g>
<g>
	<path class="st4" d="M1138.8,981.3c-6.6-9.5-74.8-107.7-95-123.8c-16-14.3-75.8,12.6-80.1,13c0,0-4.8,13.4-24.7,13
		c-19.9-0.4-32-13.4-32-13.4v-4.8c0,0-36.6-12.1-55.8-14.3c-19.2-2.2-35.2,16.5-49,34.2c-11.3,14.5-41.1,73.5-65.3,102.6
		c6.3,17.7,26.1,66.6,58.7,88.4c5.8-7.5,12.5-17.5,16.6-27.8c0,0,2.6,44.6,2.6,55.9c0,11.3-8.2,32.5,53.7,36.8
		c61.9,4.3,152.4,15.6,183.2-30.7c8.2-26,2.2-88.3,2.2-88.3l55.7,48.9C1116.7,1044.8,1134.2,994.4,1138.8,981.3z"/>
</g>
<g>
	<path class="st9" d="M736.8,987.8c-5.4,6.5-10.6,11.6-15.2,14.3c0,0,13.4,71.5,61.9,94l1.3-7.4c0,0,4.8-4.9,10.7-12.5
		C762.9,1054.4,743.1,1005.5,736.8,987.8z"/>
</g>
<g>
	<path class="st10" d="M1053.8,1024.4c-0.5,0-1-0.2-1.4-0.5l-22.3-16.9l-0.1-1c-9.2-84.1,14.3-123.5,15.4-125.1
		c0.7-1.1,2.1-1.4,3.2-0.8c1.1,0.7,1.4,2.1,0.8,3.2c-0.2,0.4-23.5,39.5-14.8,121.2l20.7,15.6c1,0.8,1.2,2.2,0.5,3.3
		C1055.2,1024.1,1054.5,1024.4,1053.8,1024.4z"/>
</g>
<g>
	<path class="st10" d="M945.9,908.3c-11.7,0-32.4-2.3-43-17c-0.7-1-0.5-2.5,0.5-3.2c1-0.8,2.5-0.5,3.2,0.5
		c13.3,18.6,46.9,14.7,47.2,14.6c1.3-0.2,2.4,0.7,2.6,2c0.2,1.3-0.7,2.4-2,2.6C954,907.9,950.7,908.3,945.9,908.3z"/>
</g>
<g>
	<path class="st10" d="M847.7,975.5c-0.1,0-0.2,0-0.4,0c-1.3-0.2-2.1-1.4-1.9-2.7c8.4-51.7-17.1-91.5-17.4-91.9
		c-0.7-1.1-0.4-2.5,0.7-3.2c1.1-0.7,2.5-0.4,3.2,0.7c1.1,1.7,26.8,41.6,18.1,95.2C849.8,974.6,848.8,975.5,847.7,975.5z"/>
</g>
<g>
	<path class="st10" d="M811.3,1054.3c-0.4,0-0.8-0.1-1.1-0.3c-1.1-0.6-1.5-2-0.9-3.2l13-23.4c0.6-1.1,2-1.5,3.2-0.9
		c1.1,0.6,1.5,2,0.9,3.2l-13,23.4C812.9,1053.8,812.1,1054.3,811.3,1054.3z"/>
</g>
<g>
	<polygon class="st5" points="1068.3,830 1103.6,845.8 1117,826.7 1070.3,822.4 	"/>
</g>
<g>
	<path class="st5" d="M1066.4,815.1c1.7,0,34.2-23.8,34.2-23.8l-13.7-18.8l-27,35.7L1066.4,815.1z"/>
</g>
<g>
	<polygon class="st5" points="778.7,845.8 786.6,845.8 768.4,799 748.9,815.1 	"/>
</g>
<g>
	<path class="st5" d="M770.1,864.4l-39.4,15.2c0,0-12.6-7.4-6.5-24.3h45.9V864.4z"/>
</g>
<g>
	<g>
		<path class="st6" d="M2127.4,1849.7c0,0,35.5,4.1,35.5,16.3s-54.6,29.6-230.4,31.3c-175.8,1.7-409.8,13-388.6-23.8
			c21.1-36.8,164.3-52.3,164.3-52.3s100.3,11.2,144.5,12.9C1897,1835.8,2106.6,1836.7,2127.4,1849.7z"/>
	</g>
</g>
<g>
	<g>
		<g>
			<path class="st5" d="M2052.3,1779c0,0,9.2,24.4,45,30.4c35.8,6,48.5,20.4,43.9,40.6c-4.6,9.8-41.8,13.9-79.2,14.4
				s-100.4,9.2-105.6-20.8c-1.2-7.5,6.4-67.6,6.4-67.6S2038.5,1751.2,2052.3,1779z"/>
		</g>
	</g>
	<g>
		<g>
			<path class="st5" d="M1741.1,1806.1c0,0,0,39.8-5.2,53.7c-5.2,13.9-13.9,23.1-62.9,21.9c-49.1-1.2-101.1,4-117.8-5.8
				c-16.7-9.8-20.2-34.6,27.7-44.5c47.9-9.8,59.5-9.8,78.5-54.3C1680.5,1732.8,1738.8,1787.6,1741.1,1806.1z"/>
		</g>
	</g>
	<g>
		<g>
			<path class="st5" d="M1983.6,1019.4c0,0,26,286.6,39.8,403.2c4,46.8,43.3,332.6,38.1,359.5c0,0-59.8,45-129.9,0.9
				c0,0-77.1-584.7-79.7-592.5c-2.6-7.8-12.1-35.5-16.5-1.7c-4.3,33.8-53.4,567.6-67.3,604.6c0,0-2,17.3-42.4,15.9
				c-40.4-1.4-86.9-13-91.8-11.5c0,0,25.9-320.8,37.3-589.9C1682.8,938.8,1674.7,809.1,1983.6,1019.4z"/>
		</g>
	</g>
</g>
<g>
	<g>
		<path class="st8" d="M2152.2,998.8c0,0,12.7,5.8,23.7,26c11,20.2,14.3,28.9,19.1,30.2c0,0,1,17.3-21.4,10c0,0-3.3,14.7-27.6,23.4
			s-60.6,20.4-52-76.7C2094.1,1011.7,2145.3,994.1,2152.2,998.8z"/>
	</g>
</g>
<g>
	<g>
		<path class="st8" d="M1669.2,472.1c0,0,31.6-39.4,51.1-52.4c19.5-13-11.7-16.9-19.9-9.5c0,0,0.9-15.2-24.3-26.4
			c-25.1-11.3-49.4-6.5-58,64.5C1606.4,510.2,1638,487.6,1669.2,472.1z"/>
	</g>
</g>
<g>
	<g>
		<path class="st9" d="M1990.2,979.4c0,0,6.9,32.9,0,45.6c-6.9,12.7-159.6,43.6-316.6,6.7c-12.7-5.2,0-44.5,0-61.2
			C1673.5,953.8,1982.1,965,1990.2,979.4z"/>
	</g>
</g>
<g>
	<g>
		<path class="st2" d="M1823.2,544.4c0,0,54.7-5.8,89.9-3.5c35.2,2.3,90.4,6.1,112,59.8c21.7,53.7,136,384.6,136,384.6
			s-13,49.4-75.4,29.4l-86.6-205.3c0,0,23.1,137.4-13.9,179c0,0-58.9,54.3-294.5,15c0,0-41.6-26.6-37-61.2
			c4.6-34.6,17.4-246.3,17.4-246.3s-83.2,41.8-117.8,49.9c-34.6,8.1-90.1-15-53.1-101.6c37-86.6,102.8-207.9,102.8-207.9
			s58.3,4.6,71,42.7l-75.6,149c0,0,68.1-70.7,121.8-78.5C1736.1,547.3,1823.2,544.4,1823.2,544.4z"/>
	</g>
</g>
<g>
	<g>
		<path class="st11" d="M1998.1,811.2c-1.7,0-3.2-1.2-3.4-3l-21.4-140.3c-0.3-1.9,1-3.7,2.9-4c2-0.3,3.7,1,4,2.9l21.4,140.3
			c0.3,1.9-1,3.7-2.9,4C1998.4,811.2,1998.2,811.2,1998.1,811.2z"/>
	</g>
</g>
<g>
	<g>
		<path class="st11" d="M1824.7,603.3c-9.2,0-19-1.4-28.3-5.6c-14.1-6.3-24.2-17.8-30.2-34.2c-0.7-1.8,0.3-3.8,2.1-4.5
			c1.8-0.7,3.8,0.3,4.5,2.1c5.3,14.5,14.3,24.7,26.5,30.2c26,11.7,58.7-1,59.1-1.1c1.8-0.7,3.8,0.2,4.5,2c0.7,1.8-0.2,3.8-2,4.5
			C1859.8,597.1,1843.8,603.3,1824.7,603.3z"/>
	</g>
</g>
<g>
	<g>
		<path class="st11" d="M1583.9,675.2c-1.4,0-2.7-0.8-3.2-2.2c-9-21.7,16-49.7,17.1-50.9c1.3-1.4,3.5-1.5,4.9-0.2
			c1.4,1.3,1.5,3.5,0.2,4.9c-0.2,0.3-23.1,25.9-15.8,43.5c0.7,1.8-0.1,3.8-1.9,4.6C1584.8,675.1,1584.3,675.2,1583.9,675.2z"/>
	</g>
</g>
<g>
	<g>
		<path class="st11" d="M1944.6,1041.1c-1.9,0-3.5-1.6-3.5-3.5v-31.8c0-1.9,1.6-3.5,3.5-3.5c1.9,0,3.5,1.6,3.5,3.5v31.8
			C1948.1,1039.6,1946.6,1041.1,1944.6,1041.1z"/>
	</g>
</g>
<g>
	<g>
		<path class="st11" d="M1880.8,1049.1c-1.8,0-3.4-1.4-3.5-3.3l-1.7-30.3c-0.1-1.9,1.4-3.6,3.3-3.7c1.9-0.2,3.6,1.4,3.7,3.3
			l1.7,30.3c0.1,1.9-1.4,3.6-3.3,3.7C1881,1049.1,1880.9,1049.1,1880.8,1049.1z"/>
	</g>
</g>
<g>
	<g>
		<path class="st11" d="M1817.8,1049.1c-1.9,0-3.5-1.6-3.5-3.5v-30.3c0-1.9,1.6-3.5,3.5-3.5s3.5,1.6,3.5,3.5v30.3
			C1821.2,1047.5,1819.7,1049.1,1817.8,1049.1z"/>
	</g>
</g>
<g>
	<g>
		<path class="st11" d="M1758.4,1046.8c-1.9,0-3.5-1.6-3.5-3.5v-31.5c0-1.9,1.6-3.5,3.5-3.5c1.9,0,3.5,1.6,3.5,3.5v31.5
			C1761.9,1045.2,1760.4,1046.8,1758.4,1046.8z"/>
	</g>
</g>
<g>
	<g>
		<path class="st11" d="M1698.7,1038.1c-1.9,0-3.5-1.6-3.5-3.5v-28.4c0-1.9,1.6-3.5,3.5-3.5c1.9,0,3.5,1.6,3.5,3.5v28.4
			C1702.1,1036.6,1700.6,1038.1,1698.7,1038.1z"/>
	</g>
</g>
<g>
	<g>
		<path class="st11" d="M1856.8,1018.8c-2.7,0-5.5,0-8.3-0.1c-119.9-1.6-172.1-9.7-180.3-28.2c-0.8-1.8,0-3.8,1.8-4.6
			c1.8-0.8,3.8,0,4.6,1.8c9.8,21.9,133.4,23.5,174.1,24.1c106.2,1.4,132.3-24.8,132.5-25c1.3-1.4,3.5-1.5,4.9-0.2
			c1.4,1.3,1.5,3.5,0.2,4.9C1985.2,992.6,1960.1,1018.8,1856.8,1018.8z"/>
	</g>
</g>
<g>
	<g>
		<path class="st12" d="M2178.9,1068c-0.4,0-0.8-0.1-1.1-0.3c-12.3-6.9-20.4-31.2-20.8-32.2c-0.2-1-1.2-6-9.3-6.5
			c-1.2-0.1-2.2,0.5-2.9,1.6c-1.9,3.4-1.8,13.5,10.1,30.3c0.7,1,0.5,2.5-0.6,3.2c-1,0.7-2.5,0.5-3.2-0.6
			c-12.4-17.4-13.5-29.7-10.4-35.3c1.5-2.7,4.2-4.2,7.2-4c9.8,0.6,13.2,6.8,13.6,10.1c0,0,0,0,0,0c0,0,7.9,23.1,18.6,29.2
			c1.1,0.6,1.5,2,0.9,3.2C2180.5,1067.6,2179.7,1068,2178.9,1068z"/>
	</g>
</g>
<g>
	<g>
		<path class="st12" d="M2103.1,1087.5c-0.9,0-1.8-0.5-2.1-1.4c-1.1-2.7-10.6-26.5-4.3-36c1.2-1.8,3.6-4,8.1-4
			c5.8,0,8.1,6.8,9.6,11.4c0.2,0.7,0.4,1.3,0.7,1.9c0.4,1.2-0.2,2.5-1.4,3c-1.2,0.4-2.5-0.2-3-1.4c-0.2-0.6-0.5-1.3-0.7-2
			c-1.1-3.3-2.8-8.2-5.2-8.2c-2.6,0-3.6,1.1-4.2,1.9c-3.8,5.6,0.9,22.4,4.7,31.6c0.5,1.2-0.1,2.5-1.3,3
			C2103.7,1087.4,2103.4,1087.5,2103.1,1087.5z"/>
	</g>
</g>
<g>
	<g>
		<path class="st12" d="M2119.3,1078.4c-0.9,0-1.7-0.5-2.1-1.4c-3.6-7.9-14.6-34.2-5.5-39.8c2.7-1.6,5.3-2,7.7-1.1
			c3.7,1.4,6.6,5.4,8.8,12.2c0.4,1.2-0.3,2.5-1.5,2.9c-1.2,0.4-2.5-0.3-2.9-1.5c-2.3-7-4.7-8.8-6-9.3c-1.1-0.4-2.3-0.2-3.7,0.7
			c-3.7,2.3,0.8,19.4,7.3,33.9c0.5,1.2,0,2.5-1.2,3.1C2119.9,1078.4,2119.6,1078.4,2119.3,1078.4z"/>
	</g>
</g>
<g>
	<g>
		<path class="st12" d="M2134.7,1071.2c-0.8,0-1.6-0.4-2-1.2c-1.5-2.6-14.4-25.9-10.4-37.7c0.9-2.8,2.8-4.9,5.4-6
			c3.6-1.1,6.7-0.7,9.4,1c6,3.8,7.6,13.1,7.7,13.5c0.2,1.3-0.6,2.5-1.9,2.7c-1.2,0.2-2.5-0.6-2.7-1.9c-0.4-2.1-2.1-8.1-5.6-10.4
			c-1.5-1-3.3-1.1-5.3-0.5c-1.1,0.5-2,1.5-2.6,3.1c-2.8,8.4,6.3,27.4,10.1,34c0.6,1.1,0.2,2.5-0.9,3.2
			C2135.4,1071.1,2135.1,1071.2,2134.7,1071.2z"/>
	</g>
</g>
<g>
	<g>
		<path class="st12" d="M1675.6,438.7c-1.9,0-3.7-0.6-5.1-1.8c-3-2.6-3.5-7-1.5-11.5c3.5-7.6,10.6-19.3,10.9-19.8
			c0.7-1.1,2.1-1.4,3.2-0.8c1.1,0.7,1.4,2.1,0.8,3.2c-0.1,0.1-7.3,12-10.7,19.4c-1.2,2.5-1.1,4.9,0.3,6.1c1.3,1.2,3.7,0.9,6.1-0.7
			c5.7-3.7,15.5-18.4,18.8-23.7c0.7-1.1,2.1-1.4,3.2-0.8c1.1,0.7,1.4,2.1,0.8,3.2c-0.5,0.8-12.5,20.2-20.2,25.2
			C1679.9,438,1677.7,438.7,1675.6,438.7z"/>
	</g>
</g>
<g>
	<g>
		<path class="st12" d="M1658.8,434c-2.2,0-4.3-0.6-6.3-1.8c-1.6-1-2.5-2.7-2.8-5c-1-8.2,6.2-25.6,13.8-33.2c0.9-0.9,2.4-0.9,3.3,0
			s0.9,2.4,0,3.3c-6.4,6.4-13.3,22.6-12.5,29.3c0.1,1,0.4,1.5,0.6,1.6c1.9,1.1,3.8,1.4,5.7,0.9c5.6-1.4,9.8-8.7,9.8-8.8
			c0.6-1.1,2.1-1.5,3.2-0.9c1.1,0.6,1.5,2.1,0.9,3.2c-0.2,0.4-5.2,9-12.7,11C1660.8,433.9,1659.8,434,1658.8,434z"/>
	</g>
</g>
<g>
	<g>
		<path class="st12" d="M1648.7,423.8c-2.7,0-6.4-0.5-8.8-2.9c-1.3-1.3-2.7-3.7-1.9-7.8c2-10.4,11.3-22.2,11.7-22.7
			c0.8-1,2.3-1.2,3.3-0.4c1,0.8,1.2,2.3,0.4,3.3c-0.1,0.1-9,11.4-10.8,20.6c-0.5,2.5,0.4,3.4,0.7,3.7c1.8,1.9,6.5,1.6,7.9,1.3
			c1.3-0.2,2.5,0.6,2.7,1.9c0.2,1.3-0.6,2.5-1.9,2.7C1651.7,423.7,1650.4,423.8,1648.7,423.8z"/>
	</g>
</g>
<g>
	<g>
		<path class="st12" d="M1634.4,414.1c-1.8,0-3.6-0.5-4.9-1.8c-3.4-3.5-1.9-10.9,4.6-23.2c0.6-1.1,2-1.6,3.1-1
			c1.1,0.6,1.6,2,0.9,3.1c-7.8,14.6-5.7,17.5-5.4,17.8c1,1,4.7,0.1,6.9-1c1.2-0.6,2.5-0.1,3.1,1.1c0.6,1.2,0.1,2.5-1.1,3.1
			C1641.2,412.5,1637.8,414.1,1634.4,414.1z"/>
	</g>
</g>
<g>
	<g>
		<path class="st11" d="M1671.3,699.5c-1.1,0-2.2-0.5-2.8-1.4c-1.1-1.6-0.8-3.7,0.8-4.9l17.3-12.4c1.6-1.1,3.7-0.8,4.9,0.8
			c1.1,1.6,0.8,3.7-0.8,4.9l-17.3,12.4C1672.7,699.3,1672,699.5,1671.3,699.5z"/>
	</g>
</g>
<g>
	<g>
		<g>
			<path class="st8" d="M1855.4,499v43.9c0,0,9.2,12.4,0,22.2c-9.2,9.8-43.9,13.9-60.6-2.3c-12.1-12.4-6.6-19.1-6.6-19.1v-46.2
				C1788.2,497.6,1850.5,491.8,1855.4,499z"/>
		</g>
	</g>
	<g>
		<g>
			<path class="st8" d="M1897,365.5c0,0,4.3,60.6,0,88.3c-4.3,27.7-10.4,57.6-75.8,57.6c-65.4,0-68.9-21.2-81.9-78
				c0,0-20.8,7.4-24.7-16.9c-5.2-32.5,18.9-30.5,18.9-30.5s16.6-58.3,32.2-63.5c15.6-5.2,59.3-7.4,63.7-5.2
				C1833.8,319.6,1897,365.5,1897,365.5z"/>
		</g>
	</g>
	<g>
		<g>
			<path class="st13" d="M1920.1,340.5c0,0,6.4,42.2-48.5,27.7c-54.9-14.4-9.2-49.1-103.4-36.4c-14.4,4-9.8,24.3-9.8,33.5
				s-4.6,34.1-37,24.3c0,0-7.5-11.3-10.4-16.7c-2.5-4.7-20.2-54.3,39.3-63.5c0,0-3.6-11.8,1.2-13.1c4.8-1.3,9.1,13,9.1,13
				s10.3-43.5,83.6-34.2C1880,279.3,1884,342.6,1920.1,340.5z"/>
		</g>
	</g>
</g>
</svg>
